<?xml version="1.0" encoding="UTF-8"?>
<svg width="59.52pt" version="1.1" xmlns="http://www.w3.org/2000/svg" height="64.56pt" viewBox="0 0 59.52 64.56" xmlns:xlink="http://www.w3.org/1999/xlink">
 <defs>
  <clipPath id="Clip0">
   <path d="M0 0 L57.4623 0 L57.4623 61.4256 L0 61.4256 L0 0 Z" transform="translate(0.941296, 0.361286)"/>
  </clipPath>
 </defs>
 <g id="Background">
  <g id="Group1" clip-path="url(#Clip0)">
   <path style="fill:#000000; fill-rule:evenodd;stroke:none;" d="M0 6.89752 L0 0 L0.936589 0 L4.56058 5.41544 L4.56058 0 L5.43598 0 L5.43598 6.89752 L4.49939 6.89752 L0.875405 1.47737 L0.875405 6.89752 L0 6.89752 Z" transform="translate(33.4348, 18.6374)"/>
   <path style="fill:#000000; fill-rule:evenodd;stroke:none;" d="M0 6.89752 L0 0 L0.913057 0 L0.913057 2.8324 L4.49939 2.8324 L4.49939 0 L5.41245 0 L5.41245 6.89752 L4.49939 6.89752 L4.49939 3.64637 L0.913057 3.64637 L0.913057 6.89752 L0 6.89752 Z" transform="translate(40.7016, 18.6374)"/>
   <path style="fill:#000000; fill-rule:evenodd;stroke:none;" d="M0 4.79909 L0.861285 4.72381 C0.902075 5.06884 0.996989 5.35193 1.14603 5.57306 C1.29507 5.7942 1.52647 5.97299 1.84023 6.10943 C2.154 6.24588 2.50698 6.3141 2.89919 6.3141 C3.24747 6.3141 3.55496 6.26234 3.82166 6.15883 C4.08836 6.05532 4.28682 5.91339 4.41703 5.73303 C4.54724 5.55267 4.61235 5.35585 4.61235 5.14255 C4.61235 4.92613 4.5496 4.73714 4.42409 4.5756 C4.29858 4.41407 4.0915 4.2784 3.80283 4.16862 C3.61771 4.09648 3.20825 3.98434 2.57444 3.83221 C1.94064 3.68009 1.49666 3.53658 1.24251 3.40171 C0.913057 3.22919 0.667535 3.01511 0.505946 2.75948 C0.344357 2.50384 0.263563 2.21762 0.263563 1.90082 C0.263563 1.55265 0.362399 1.22722 0.560071 0.924531 C0.757743 0.621843 1.04641 0.392083 1.42606 0.23525 C1.80572 0.0784165 2.22773 0 2.69211 0 C3.20354 0 3.65458 0.0823373 4.04522 0.247012 C4.43586 0.411687 4.73629 0.653994 4.94651 0.973933 C5.15673 1.29387 5.26969 1.65616 5.28537 2.06079 L4.40997 2.12666 C4.3629 1.69066 4.20367 1.36131 3.93226 1.13861 C3.66086 0.915905 3.26002 0.804553 2.72976 0.804553 C2.17753 0.804553 1.77513 0.905711 1.52255 1.10803 C1.26996 1.31034 1.14367 1.55422 1.14367 1.83965 C1.14367 2.08745 1.2331 2.29133 1.41194 2.4513 C1.58765 2.61127 2.04653 2.77516 2.78859 2.94297 C3.53064 3.11078 4.03973 3.25742 4.31584 3.38289 C4.71746 3.56795 5.01397 3.80242 5.20536 4.08628 C5.39676 4.37015 5.49246 4.69715 5.49246 5.06727 C5.49246 5.43426 5.38735 5.78008 5.17713 6.10473 C4.9669 6.42937 4.6649 6.68187 4.27113 6.86223 C3.87735 7.04259 3.43416 7.13277 2.94155 7.13277 C2.31716 7.13277 1.79395 7.0418 1.37194 6.85988 C0.949924 6.67795 0.618902 6.40428 0.378871 6.03886 C0.138841 5.67343 0.0125506 5.26018 0 4.79909 Z" transform="translate(45.9051, 54.6541)"/>
   <path style="fill:#000000; fill-rule:evenodd;stroke:none;" d="M0 6.89752 L0 0 L0.913057 0 L0.913057 2.8324 L4.49939 2.8324 L4.49939 0 L5.41245 0 L5.41245 6.89752 L4.49939 6.89752 L4.49939 3.64637 L0.913057 3.64637 L0.913057 6.89752 L0 6.89752 Z" transform="translate(52.9912, 54.7717)"/>
   <path style="fill:#000000; fill-rule:evenodd;stroke:none;" d="M0 3.66048 C0 2.5156 0.30749 1.6193 0.92247 0.971581 C1.53745 0.32386 2.33128 0 3.30395 0 C3.94089 0 4.51508 0.152128 5.02652 0.456384 C5.53796 0.76064 5.92781 1.18487 6.19608 1.72908 C6.46435 2.27329 6.59848 2.89043 6.59848 3.5805 C6.59848 4.27997 6.45729 4.90574 6.1749 5.45779 C5.89251 6.00984 5.49246 6.4278 4.97475 6.71167 C4.45703 6.99554 3.89853 7.13747 3.29924 7.13747 C2.64975 7.13747 2.06928 6.98064 1.55784 6.66697 C1.04641 6.35331 0.658907 5.92515 0.395344 5.38251 C0.131781 4.83987 0 4.26586 0 3.66048 Z M0.941296 3.6746 C0.941296 4.50581 1.16485 5.16059 1.61197 5.63893 C2.05908 6.11727 2.61994 6.35644 3.29453 6.35644 C3.98168 6.35644 4.54724 6.11492 4.99122 5.63187 C5.4352 5.14883 5.65719 4.46347 5.65719 3.57579 C5.65719 3.01433 5.56227 2.52423 5.37244 2.10548 C5.18262 1.68674 4.90493 1.36209 4.5394 1.13155 C4.17386 0.901006 3.76361 0.785733 3.30865 0.785733 C2.6623 0.785733 2.10615 1.00765 1.64021 1.45149 C1.17427 1.89533 0.941296 2.63636 0.941296 3.6746 Z" transform="translate(7.86452, 32.9688)"/>
   <path style="fill:#000000; fill-rule:evenodd;stroke:none;" d="M0 6.89752 L0 0 L0.913057 0 L0.913057 2.8324 L4.49939 2.8324 L4.49939 0 L5.41245 0 L5.41245 6.89752 L4.49939 6.89752 L4.49939 3.64637 L0.913057 3.64637 L0.913057 6.89752 L0 6.89752 Z" transform="translate(0.941296, 33.0911)"/>
   <path style="fill:#000000; fill-rule:evenodd;stroke:none;" d="M0 3.66048 C0 2.5156 0.30749 1.6193 0.92247 0.971581 C1.53745 0.32386 2.33128 0 3.30395 0 C3.94089 0 4.51508 0.152128 5.02652 0.456384 C5.53796 0.76064 5.92781 1.18487 6.19608 1.72908 C6.46435 2.27329 6.59848 2.89043 6.59848 3.5805 C6.59848 4.27997 6.45729 4.90574 6.1749 5.45779 C5.89251 6.00984 5.49246 6.4278 4.97475 6.71167 C4.45703 6.99554 3.89853 7.13747 3.29924 7.13747 C2.64975 7.13747 2.06928 6.98064 1.55784 6.66697 C1.04641 6.35331 0.658907 5.92515 0.395344 5.38251 C0.131781 4.83987 0 4.26586 0 3.66048 Z M0.941296 3.6746 C0.941296 4.50581 1.16485 5.16059 1.61197 5.63893 C2.05908 6.11727 2.61994 6.35644 3.29453 6.35644 C3.98168 6.35644 4.54724 6.11492 4.99122 5.63187 C5.4352 5.14883 5.65719 4.46347 5.65719 3.57579 C5.65719 3.01433 5.56227 2.52423 5.37244 2.10548 C5.18262 1.68674 4.90493 1.36209 4.5394 1.13155 C4.17386 0.901006 3.76361 0.785733 3.30865 0.785733 C2.6623 0.785733 2.10615 1.00765 1.64021 1.45149 C1.17427 1.89533 0.941296 2.63636 0.941296 3.6746 Z" transform="translate(20.3951, 54.6494)"/>
   <path style="fill:#000000; fill-rule:evenodd;stroke:none;" d="M0 3.66048 C0 2.5156 0.30749 1.6193 0.92247 0.971581 C1.53745 0.32386 2.33128 0 3.30395 0 C3.94089 0 4.51508 0.152128 5.02652 0.456384 C5.53796 0.76064 5.92781 1.18487 6.19608 1.72908 C6.46435 2.27329 6.59848 2.89043 6.59848 3.5805 C6.59848 4.27997 6.45729 4.90574 6.1749 5.45779 C5.89251 6.00984 5.49246 6.4278 4.97475 6.71167 C4.45703 6.99554 3.89853 7.13747 3.29924 7.13747 C2.64975 7.13747 2.06928 6.98064 1.55784 6.66697 C1.04641 6.35331 0.658907 5.92515 0.395344 5.38251 C0.131781 4.83987 0 4.26586 0 3.66048 Z M0.941296 3.6746 C0.941296 4.50581 1.16485 5.16059 1.61197 5.63893 C2.05908 6.11727 2.61994 6.35644 3.29453 6.35644 C3.98168 6.35644 4.54724 6.11492 4.99122 5.63187 C5.4352 5.14883 5.65719 4.46347 5.65719 3.57579 C5.65719 3.01433 5.56227 2.52423 5.37244 2.10548 C5.18262 1.68674 4.90493 1.36209 4.5394 1.13155 C4.17386 0.901006 3.76361 0.785733 3.30865 0.785733 C2.6623 0.785733 2.10615 1.00765 1.64021 1.45149 C1.17427 1.89533 0.941296 2.63636 0.941296 3.6746 Z" transform="translate(7.86452, 18.5151)"/>
   <path style="fill:#000000; fill-rule:evenodd;stroke:none;" d="M0.963887 9.15403 L0.963887 9.15403 L1.92777 0 L0.963887 0 L0 0 L0.963887 9.15403 L0.963887 9.15403 Z" transform="translate(35.4228, 27.703)"/>
   <path style="fill:none;stroke:#000000; stroke-width:0.25; stroke-linecap:round; stroke-linejoin:bevel; stroke-dasharray:none;" d="M0.963887 9.15403 L0.963887 9.15403 L1.92777 0 L0.963887 0 L0 0 L0.963887 9.15403 L0.963887 9.15403 " transform="translate(35.4228, 27.703)"/>
   <path style="fill:none;stroke:#000000; stroke-width:0.722801; stroke-linecap:round; stroke-linejoin:bevel; stroke-dasharray:none;" d="M0 0 L12.2896 7.22687 " transform="translate(36.3867, 36.857)"/>
   <path style="fill:none;stroke:#000000; stroke-width:0.722801; stroke-linecap:round; stroke-linejoin:bevel; stroke-dasharray:none;" d="M0 0 L0 9.39493 " transform="translate(48.6763, 44.0839)"/>
   <path style="fill:none;stroke:#000000; stroke-width:0.722801; stroke-linecap:round; stroke-linejoin:bevel; stroke-dasharray:none;" d="M12.5305 0 L0 7.22687 " transform="translate(23.8562, 36.857)"/>
   <path style="fill:none;stroke:#000000; stroke-width:0.722801; stroke-linecap:round; stroke-linejoin:bevel; stroke-dasharray:none;" d="M7.71109 4.33612 L0 0 " transform="translate(16.1451, 39.7478)"/>
   <path style="fill:none;stroke:#000000; stroke-width:0.722801; stroke-linecap:round; stroke-linejoin:bevel; stroke-dasharray:none;" d="M0 0 L0 9.39493 " transform="translate(22.6513, 44.0839)"/>
   <path style="fill:none;stroke:#000000; stroke-width:0.722801; stroke-linecap:round; stroke-linejoin:bevel; stroke-dasharray:none;" d="M0 0 L0 9.39493 " transform="translate(25.302, 44.0839)"/>
   <path style="fill:none;stroke:#000000; stroke-width:0.722801; stroke-linecap:round; stroke-linejoin:bevel; stroke-dasharray:none;" d="M0 14.4537 L0 0 " transform="translate(23.8562, 0.722687)"/>
   <path style="fill:none;stroke:#000000; stroke-width:0.722801; stroke-linecap:round; stroke-linejoin:bevel; stroke-dasharray:none;" d="M6.98818 0 L0 4.09522 " transform="translate(16.1451, 14.2128)"/>
   <path style="fill:none;stroke:#000000; stroke-width:0.722801; stroke-linecap:round; stroke-linejoin:bevel; stroke-dasharray:none;" d="M8.43401 0 L0 4.81791 " transform="translate(16.1451, 16.6218)"/>
   <path style="fill:none;stroke:#000000; stroke-width:0.722801; stroke-linecap:round; stroke-linejoin:bevel; stroke-dasharray:none;" d="M7.71109 4.57701 L0 0 " transform="translate(23.8562, 15.1764)"/>
  </g>
 </g>
</svg>
