<?xml version="1.0" encoding="UTF-8"?>
<!DOCTYPE svg PUBLIC "-//W3C//DTD SVG 1.0//EN" "http://www.w3.org/TR/2001/REC-SVG-20010904/DTD/svg10.dtd">
<svg fill-opacity="1" xmlns:xlink="http://www.w3.org/1999/xlink" color-rendering="auto" color-interpolation="auto" stroke="black" text-rendering="auto" stroke-linecap="square" width="140" stroke-miterlimit="10" stroke-opacity="1" shape-rendering="auto" fill="black" stroke-dasharray="none" font-weight="normal" stroke-width="1" height="94" xmlns="http://www.w3.org/2000/svg" font-family="'Dialog'" font-style="normal" stroke-linejoin="miter" font-size="12" stroke-dashoffset="0" image-rendering="auto">
  <!--Generated by Marvin with Batik SVG Generator
MolSource:
<?xml version="1.0" encoding="windows-1252"?><cml version="ChemAxon file format v6.0, generated by v6.0.4">
<MDocument><MChemicalStruct><molecule title="acetylcysteinamide" molID="m1" absStereo="true"><propertyList><property dictRef="type" title="type"><scalar>systematic</scalar></property></propertyList><atomArray atomID="a1 a2 a3 a4 a5 a6 a7 a8 a9 a10" elementType="N C C S C N O C C O" x2="3.643679121828035 2.309999999999999 0.9763208781719639 -0.3573582436560727 2.3099999999999987 3.6436791218280344 0.9763208781719621 4.97735824365607 6.311037365484106 4.97735824365607" y2="2.1036791218280357 1.3336791218280357 2.103679121828036 1.3336791218280357 -0.20632087817196432 -0.9763208781719648 -0.9763208781719639 1.3336791218280353 2.1036791218280353 -0.20632087817196498"></atomArray><bondArray><bond atomRefs2="a2 a1" order="1"><bondStereo>H</bondStereo></bond><bond atomRefs2="a2 a3" order="1"></bond><bond atomRefs2="a3 a4" order="1"></bond><bond atomRefs2="a2 a5" order="1"></bond><bond atomRefs2="a5 a6" order="1"></bond><bond atomRefs2="a5 a7" order="2"></bond><bond atomRefs2="a8 a9" order="1"></bond><bond atomRefs2="a8 a10" order="2"></bond><bond atomRefs2="a1 a8" order="1"></bond></bondArray></molecule></MChemicalStruct></MDocument>
</cml>-->
  <defs id="genericDefs"/>
  <g>
    <defs id="defs1">
      <clipPath clipPathUnits="userSpaceOnUse" id="clipPath1">
        <path d="M0 0 L140 0 L140 94 L0 94 L0 0 Z"/>
      </clipPath>
      <clipPath clipPathUnits="userSpaceOnUse" id="clipPath2">
        <path d="M88.07499694824219 3 C89.52474975585938 3 90.69999694824219 5.014718532562256 90.69999694824219 7.5 L90.69999694824219 14.100000381469727 C90.69999694824219 15.113045692443848 90.50473022460938 16.04790496826172 90.1751937866211 16.799999237060547 L90.1751937866211 16.799999237060547 C90.50473022460938 17.552095413208008 90.69999694824219 18.486953735351562 90.69999694824219 19.5 L90.69999694824219 26.100000381469727 C90.69999694824219 28.585281372070312 89.52474975585938 30.600000381469727 88.07499694824219 30.600000381469727 L85.625 30.600000381469727 C84.17525482177734 30.600000381469727 83 28.585281372070312 83 26.100000381469727 L83 19.5 C83 18.486953735351562 83.19527435302734 17.552095413208008 83.52481079101562 16.799999237060547 L83.52481079101562 16.799999237060547 C83.19527435302734 16.04790496826172 83 15.113045692443848 83 14.100000381469727 L83 7.5 C83 5.014718532562256 84.17525482177734 3 85.625 3 ZM13.149999618530273 29 C16.049495697021484 29 18.399999618530273 31.014719009399414 18.399999618530273 33.5 L18.399999618530273 40.099998474121094 C18.399999618530273 42.58528137207031 16.049495697021484 44.599998474121094 13.149999618530273 44.599998474121094 L8.25 44.599998474121094 C5.3505048751831055 44.599998474121094 3 42.58528137207031 3 40.099998474121094 L3 33.5 C3 31.014719009399414 5.3505048751831055 29 8.25 29 ZM112.80000305175781 58 C114.45685577392578 58 115.80000305175781 60.01471710205078 115.80000305175781 62.5 L115.80000305175781 69.0999984741211 C115.80000305175781 71.58528137207031 114.45685577392578 73.5999984741211 112.80000305175781 73.5999984741211 L110 73.5999984741211 C108.34314727783203 73.5999984741211 107 71.58528137207031 107 69.0999984741211 L107 62.5 C107 60.01471710205078 108.34314727783203 58 110 58 ZM98.4000015258789 79.10924530029297 C98.4000015258789 79.10924530029297 98.4000015258789 79.10924530029297 98.4000015258789 79.10924530029297 L98.4000015258789 79.10924530029297 L98.4000015258789 79.10924530029297 ZM38.79999923706055 72 C40.45685577392578 72 41.79999923706055 74.01471710205078 41.79999923706055 76.5 L41.79999923706055 83.0999984741211 C41.79999923706055 85.58528137207031 40.45685577392578 87.5999984741211 38.79999923706055 87.5999984741211 L36 87.5999984741211 C34.34314727783203 87.5999984741211 33 85.58528137207031 33 83.0999984741211 L33 76.5 C33 74.01471710205078 34.34314727783203 72 36 72 ZM93.1500015258789 72 C96.04949188232422 72 98.4000015258789 74.01471710205078 98.4000015258789 76.5 L98.4000015258789 79.10924530029297 C98.55170440673828 79.03794860839844 98.71089172363281 79 98.875 79 L100.625 79 C101.66053771972656 79 102.5 80.51103973388672 102.5 82.375 L102.5 87.32499694824219 C102.5 89.18896484375 101.66053771972656 90.69999694824219 100.625 90.69999694824219 L98.875 90.69999694824219 C97.83946228027344 90.69999694824219 97 89.18896484375 97 87.32499694824219 L97 86.15943908691406 L97 86.15943908691406 C96.04117584228516 87.04549407958984 94.67113494873047 87.5999984741211 93.1500015258789 87.5999984741211 L88.25 87.5999984741211 C85.35050201416016 87.5999984741211 83 85.58528137207031 83 83.0999984741211 L83 76.5 C83 74.01471710205078 85.35050201416016 72 88.25 72 ZM0 0 L0 94 L140 94 L140 0 Z"/>
      </clipPath>
    </defs>
    <g font-size="11" fill="rgb(51,51,153)" text-rendering="optimizeLegibility" font-family="sans-serif" shape-rendering="geometricPrecision" stroke="rgb(51,51,153)">
      <text xml:space="preserve" x="83" y="15" clip-path="url(#clipPath1)" stroke="none">H
      </text>
      <text xml:space="preserve" x="83" y="27" clip-path="url(#clipPath1)" stroke="none">N
      </text>
      <text font-size="9" x="63" y="30" clip-path="url(#clipPath1)" stroke="none" xml:space="preserve">
      </text>
      <text font-size="9" x="42" y="18" clip-path="url(#clipPath1)" stroke="none" xml:space="preserve">
      </text>
      <text x="3" y="41" clip-path="url(#clipPath1)" fill="rgb(102,102,0)" stroke="none" xml:space="preserve">HS
      </text>
      <text font-size="9" x="67" y="60" clip-path="url(#clipPath1)" fill="rgb(102,102,0)" stroke="none" xml:space="preserve">
      </text>
      <text xml:space="preserve" x="83" y="84" clip-path="url(#clipPath1)" stroke="none">NH
      </text>
      <text font-size="9" x="97" y="88" clip-path="url(#clipPath1)" stroke="none" xml:space="preserve">2
      </text>
      <text x="33" y="84" clip-path="url(#clipPath1)" fill="red" stroke="none" xml:space="preserve">O
      </text>
      <text font-size="9" x="111" y="30" clip-path="url(#clipPath1)" fill="red" stroke="none" xml:space="preserve">
      </text>
      <text font-size="9" x="140" y="18" clip-path="url(#clipPath1)" fill="red" stroke="none" xml:space="preserve">
      </text>
      <text x="107" y="70" clip-path="url(#clipPath1)" fill="red" stroke="none" xml:space="preserve">O
      </text>
    </g>
    <g font-size="11" stroke-linecap="round" text-rendering="optimizeLegibility" font-family="sans-serif" stroke-linejoin="bevel" shape-rendering="geometricPrecision" stroke-width="1.168279767036438">
      <line clip-path="url(#clipPath2)" fill="none" x1="77.98439494431057" x2="80.27613742558913" y1="24.941921877029742" y2="28.91133629246817"/>
      <line clip-path="url(#clipPath2)" fill="none" x1="75.55819941905314" x2="77.50618052813992" y1="26.739627958187622" y2="30.11363021131029"/>
      <line clip-path="url(#clipPath2)" fill="none" x1="73.13200389379571" x2="74.73622363069072" y1="28.537334039345506" y2="31.315924130152407"/>
      <line clip-path="url(#clipPath2)" fill="none" x1="70.7058083685383" x2="71.9662667332415" y1="30.335040120503383" y2="32.51821804899452"/>
      <line clip-path="url(#clipPath2)" fill="none" x1="68.27961284328087" x2="69.19630983579229" y1="32.13274620166127" y2="33.720511967836636"/>
      <line clip-path="url(#clipPath2)" fill="none" x1="65.85341731802345" x2="66.42635293834309" y1="33.93045228281915" y2="34.92280588667876"/>
      <line clip-path="url(#clipPath2)" fill="none" x1="63.42722179276601" x2="63.656396040893874" y1="35.72815836397703" y2="36.125099805520875"/>
      <line clip-path="url(#clipPath2)" fill="none" x1="61.80975810926107" x2="37.4642833715382" y1="36.92662908474895" y2="22.87076269137541"/>
      <line clip-path="url(#clipPath2)" fill="none" x1="37.4642833715382" x2="28.965780616851518" y1="22.87076269137541" y2="27.77737554450254"/>
      <line clip-path="url(#clipPath2)" fill="none" x1="28.965780616851518" x2="20.467277862164835" y1="27.77737554450254" y2="32.68398839762967" stroke="rgb(102,102,0)"/>
      <line clip-path="url(#clipPath2)" fill="none" x1="61.80975810926107" x2="61.80975810926107" y1="36.92662908474895" y2="65.03836187149602"/>
      <line clip-path="url(#clipPath2)" fill="none" x1="61.80975810926107" x2="70.30826086394774" y1="65.03836187149602" y2="69.94497472462315"/>
      <line clip-path="url(#clipPath2)" fill="none" x1="70.30826086394774" x2="78.8067636186344" y1="69.94497472462315" y2="74.85158757775028" stroke="rgb(51,51,153)"/>
      <line clip-path="url(#clipPath2)" fill="none" x1="64.33981406006829" x2="55.20879731767981" y1="66.49909035575939" y2="71.77088532995236"/>
      <line clip-path="url(#clipPath2)" fill="none" x1="61.80975810926107" x2="52.67874136687257" y1="62.11690490296926" y2="67.38869987716224"/>
      <line clip-path="url(#clipPath2)" fill="none" x1="55.20879731767981" x2="46.07778057529132" y1="71.77088532995236" y2="77.04268030414534" stroke="red"/>
      <line clip-path="url(#clipPath2)" fill="none" x1="52.67874136687257" x2="43.54772462448408" y1="67.38869987716224" y2="72.66049485135522" stroke="red"/>
      <line clip-path="url(#clipPath2)" fill="none" x1="110.50070758470683" x2="134.8461823224297" y1="36.92662908474896" y2="22.870762691375425"/>
      <line clip-path="url(#clipPath2)" fill="none" x1="113.03076353551407" x2="113.03076353551407" y1="35.4659006004856" y2="46.00949054887153"/>
      <line clip-path="url(#clipPath2)" fill="none" x1="107.97065163389959" x2="107.97065163389959" y1="35.46590060048558" y2="46.009490548871526"/>
      <line clip-path="url(#clipPath2)" fill="none" x1="113.03076353551407" x2="113.03076353551407" y1="46.00949054887153" y2="56.55308049725747" stroke="red"/>
      <line clip-path="url(#clipPath2)" fill="none" x1="107.97065163389959" x2="107.97065163389959" y1="46.009490548871526" y2="56.55308049725747" stroke="red"/>
      <line clip-path="url(#clipPath2)" fill="none" x1="93.50370207533348" x2="102.00220483002016" y1="27.113403378494702" y2="32.02001623162183" stroke="rgb(51,51,153)"/>
      <line clip-path="url(#clipPath2)" fill="none" x1="102.00220483002016" x2="110.50070758470684" y1="32.02001623162183" y2="36.92662908474896"/>
    </g>
  </g>
</svg>