<?xml version="1.0" standalone="no"?>
<!DOCTYPE svg PUBLIC "-//W3C//DTD SVG 20010904//EN"
 "http://www.w3.org/TR/2001/REC-SVG-20010904/DTD/svg10.dtd">
<svg version="1.0" xmlns="http://www.w3.org/2000/svg"
 width="279.000000pt" height="279.000000pt" viewBox="0 0 279.000000 279.000000"
 preserveAspectRatio="xMidYMid meet">

<g transform="translate(0.000000,279.000000) scale(0.100000,-0.100000)"
fill="#000000" stroke="none">
<path d="M1318 2629 c-93 -13 -183 -66 -223 -129 -79 -125 -85 -296 -15 -460
31 -72 132 -234 242 -388 93 -130 106 -158 85 -182 -12 -15 -76 -48 -89 -46
-4 0 -15 -9 -24 -22 -28 -40 -52 -24 -141 93 -169 222 -268 296 -414 309 -152
13 -268 -25 -367 -122 -77 -76 -128 -165 -172 -300 -45 -141 -54 -198 -54
-352 -1 -209 35 -350 119 -480 56 -86 117 -143 188 -175 51 -24 68 -27 140
-24 177 8 317 121 444 359 39 74 91 180 114 235 77 181 108 210 172 161 19
-14 48 -29 65 -32 43 -9 56 -46 31 -95 -56 -111 -122 -303 -134 -390 -24 -168
106 -376 283 -450 130 -54 306 -50 502 13 158 50 377 190 476 305 78 89 102
128 129 215 67 212 0 365 -203 466 l-76 37 -246 0 c-135 -1 -296 -7 -359 -13
-153 -17 -158 -14 -163 100 -4 118 0 122 165 137 136 12 267 40 326 71 51 26
142 119 173 177 149 273 -2 607 -382 845 -178 112 -406 164 -592 137z m167
-1319 c21 -24 24 -72 5 -94 -16 -20 -69 -20 -94 -1 -27 21 -25 73 3 97 30 24
63 23 86 -2z"/>
</g>
</svg>
